<svg width="200" height="236" viewBox="0 0 200 236" fill="none" xmlns="http://www.w3.org/2000/svg">
<path d="M70.5882 188.235C64.1176 188.235 58.5804 185.933 53.9765 181.329C49.3725 176.725 47.0667 171.184 47.0588 164.706V23.5294C47.0588 17.0588 49.3647 11.5216 53.9765 6.91765C58.5882 2.31373 64.1255 0.00784314 70.5882 0H176.471C182.941 0 188.482 2.30588 193.094 6.91765C197.706 11.5294 200.008 17.0667 200 23.5294V164.706C200 171.176 197.698 176.718 193.094 181.329C188.49 185.941 182.949 188.243 176.471 188.235H70.5882ZM70.5882 164.706H176.471V23.5294H70.5882V164.706ZM23.5294 235.294C17.0588 235.294 11.5216 232.992 6.91765 228.388C2.31373 223.784 0.00784314 218.243 0 211.765V47.0588H23.5294V211.765H152.941V235.294H23.5294Z" fill="white"/>
</svg>
